<?xml version="1.0" encoding="utf-8"?>
<!-- Generator: Adobe Illustrator 23.0.3, SVG Export Plug-In . SVG Version: 6.00 Build 0)  -->
<svg version="1.1" id="Layer_1" xmlns="http://www.w3.org/2000/svg" xmlns:xlink="http://www.w3.org/1999/xlink" x="0px" y="0px"
	 viewBox="0 0 411 416" style="enable-background:new 0 0 411 416;" xml:space="preserve">
<style type="text/css">
	.st0{fill:#FFFFFF;}
</style>
<g>
	<path class="st0" d="M1015-223c0-150.67,0-301.33,0-452c150.67,0,301.33,0,452,0c0,150.67,0,301.33,0,452
		C1316.33-223,1165.67-223,1015-223z M1441.06-503.19c-17.9-76.25-96.76-158.66-209.77-153.42
		c-57.22,2.65-105.43,25.94-144.21,68.14c-22.39,24.37-37.83,52.66-46.71,85.28c5.09,0,9.27-0.29,13.39,0.08
		c3.98,0.36,5.84-0.97,7.07-4.88c6.07-19.39,15.54-37.08,27.61-53.4c0.86-1.16,1.86-2.2,2.03-2.4
		c18.11,7.31,35.49,14.32,52.98,21.37c-2.43,12.44-4.99,25.54-7.67,39.23c5.41,0,9.74-0.25,14.02,0.07c3.8,0.28,4.99-1.06,5.61-4.84
		c1.69-10.27,4.02-20.43,5.93-29.78c24.06,2.8,47.12,5.48,70.85,8.23c0,8.26,0,17.14,0,26.01c6.21,0,11.8,0,18,0
		c0-9.17,0-18.05,0-26.04c23.75-2.76,46.8-5.44,70.53-8.2c1.99,9.87,4.01,20.3,6.26,30.68c0.31,1.41,1.7,3.59,2.71,3.66
		c5.24,0.37,10.51,0.17,16.6,0.17c-2.73-13.82-5.29-26.82-7.73-39.17c17.61-7.12,35.1-14.2,53.02-21.44c0.21,0.25,0.99,1.09,1.67,2
		c12.32,16.56,21.76,34.6,28.27,54.21c0.58,1.74,2.62,4.05,4.19,4.22C1430.61-502.84,1435.63-503.19,1441.06-503.19z
		 M1090.42-334.18c-0.35-0.43-1.33-1.52-2.2-2.7c-12.03-16.35-21.31-34.12-27.7-53.41c-0.57-1.71-2.27-4.17-3.64-4.3
		c-5.21-0.51-10.5-0.2-15.9-0.2c18.31,79.25,102.99,164.01,220.72,152.57c56.72-5.51,103.31-31.28,139.81-74.96
		c18.95-22.68,32.24-48.39,40.04-77.62c-5.69,0-10.35,0.15-14.99-0.06c-2.82-0.13-4.02,0.9-4.94,3.59
		c-2.31,6.76-4.8,13.49-7.7,20.01c-6.02,13.56-13.63,26.2-22.26,37.1c-18.11-7.31-35.61-14.36-53.14-21.43
		c2.47-12.51,5.03-25.51,7.68-38.94c-2.29-0.12-3.76-0.29-5.22-0.26c-4.31,0.08-9.88-1.35-12.57,0.8
		c-2.61,2.09-2.28,7.87-3.22,12.03c-0.15,0.65-0.15,1.33-0.3,1.98c-1.56,6.91-3.13,13.81-4.45,19.66
		c-24.02-2.78-47.07-5.45-70.62-8.17c0-8.35,0-17.12,0-25.92c-6.17,0-11.89,0-18.03,0c0,9.16,0,17.93,0,25.95
		c-23.57,2.74-46.63,5.42-70.01,8.14c-0.1-0.29-0.54-1.19-0.74-2.13c-2.02-9.61-3.93-19.24-6.06-28.82
		c-0.29-1.29-1.58-3.29-2.51-3.34c-5.28-0.32-10.58-0.16-16.75-0.16c2.71,13.79,5.29,26.91,7.71,39.19
		C1125.69-348.42,1108.32-341.41,1090.42-334.18z M1313.42-484.47c7.58,23.82,15.13,47.54,22.62,71.09
		c0.64,0.19,0.96,0.37,1.27,0.37c4,0.04,7.99,0.07,11.99,0.08c8.08,0.01,8.06,0,10.83-7.8c5.33-15.01,10.68-30.02,16.32-45.84
		c1.05,2.67,1.82,4.49,2.48,6.35c5.13,14.41,10.29,28.8,15.29,43.25c1,2.89,2.27,4.38,5.61,4.12c4.14-0.33,8.34-0.33,12.48,0
		c3.32,0.26,4.6-1.1,5.55-4.07c6.8-21.38,13.77-42.71,20.66-64.07c0.39-1.19,0.55-2.46,0.87-3.93c-6.51,0-12.64,0-19.16,0
		c-4.82,16.31-9.63,32.59-14.82,50.16c-3.89-11.62-7.31-22.02-10.86-32.36c-2.03-5.93-2.67-14.22-6.87-17
		c-4.55-3.01-12.53-0.74-19-1.02c-2.66-0.12-3.78,0.95-4.59,3.32c-3.32,9.75-6.8,19.46-10.26,29.17
		c-1.88,5.27-3.83,10.52-6.17,16.94c-3.45-11.72-6.48-22.19-9.64-32.63c-1.68-5.53-2.02-13.29-5.81-15.86
		c-4.13-2.8-11.55-0.75-17.53-0.81C1314.51-484.99,1314.36-484.87,1313.42-484.47z M1177.96-484.9
		c7.48,23.55,14.73,46.52,22.2,69.43c0.38,1.16,2.57,2.34,3.98,2.44c4.64,0.31,9.33-0.1,13.98,0.19c3.11,0.19,4.27-1.09,5.23-3.87
		c5.07-14.78,10.36-29.49,15.59-44.22c0.52-1.45,1.18-2.85,2.23-5.38c6.59,18.51,12.76,35.84,19.02,53.4
		c5.48,0,10.81-0.22,16.11,0.08c3.41,0.2,4.85-0.91,5.9-4.23c6.7-21.25,13.67-42.41,20.52-63.61c0.43-1.32,0.64-2.71,0.95-4.08
		c-6.68,0-12.95,0-19.21,0c-4.79,16.35-9.49,32.4-14.55,49.68c-0.98-2.62-1.5-3.92-1.95-5.25c-4.56-13.55-9.22-27.06-13.57-40.68
		c-0.97-3.05-2.21-4.33-5.51-4.14c-4.98,0.28-10,0.3-14.98-0.01c-3.34-0.21-4.62,1.21-5.61,4.13c-4.06,11.96-8.33,23.86-12.54,35.77
		c-0.98,2.78-2.07,5.53-3.55,9.45c-5.04-17.19-9.7-33.1-14.38-49.09C1191.21-484.9,1184.91-484.9,1177.96-484.9z M1134.61-436.64
		c-0.35,0.02-0.7,0.05-1.04,0.07c-0.55-1.51-1.14-3.02-1.66-4.54c-4.5-13.4-8.91-26.82-13.57-40.16c-0.52-1.5-2.32-3.55-3.62-3.62
		c-6.79-0.36-13.62-0.17-20.62-0.17c-5.79,16.27-11.5,32.32-17.54,49.3c-0.78-2.49-1.24-3.9-1.66-5.32
		c-3.94-13.4-7.81-26.81-11.88-40.17c-0.44-1.44-1.91-3.55-3.02-3.62c-5.73-0.37-11.49-0.17-17.84-0.17
		c7.76,24.46,15.29,48.19,22.89,72.14c5.92,0,11.57-0.19,17.21,0.07c3.09,0.14,4.33-1.05,5.29-3.85
		c5.07-14.78,10.34-29.49,15.56-44.22c0.56-1.59,1.27-3.14,2.26-5.56c6.59,18.53,12.8,36.02,19.03,53.55
		c5.81,0,11.14-0.19,16.44,0.07c3.25,0.16,4.54-0.99,5.52-4.1c6.74-21.4,13.74-42.73,20.64-64.08c0.38-1.18,0.58-2.42,0.97-4.04
		c-5.12,0-9.78,0.22-14.41-0.07c-3.58-0.23-5.21,0.88-6.21,4.52C1143.32-465.91,1138.9-451.29,1134.61-436.64z"/>
	<path d="M1441.06-503.19c-5.4,0-10.4,0.35-15.3-0.2c-1.56-0.17-3.59-2.48-4.17-4.23c-6.49-19.63-15.89-37.69-28.15-54.26
		c-0.68-0.91-1.46-1.75-1.67-2.01c-17.84,7.25-35.27,14.34-52.8,21.47c2.43,12.37,4.98,25.38,7.7,39.21
		c-6.06,0-11.31,0.2-16.53-0.17c-1.01-0.07-2.4-2.26-2.7-3.67c-2.24-10.39-4.26-20.83-6.23-30.71c-23.64,2.76-46.59,5.44-70.25,8.21
		c0,8,0,16.89,0,26.07c-6.18,0-11.74,0-17.93,0c0-8.88,0-17.77,0-26.04c-23.63-2.76-46.6-5.44-70.56-8.24
		c-1.9,9.35-4.22,19.53-5.9,29.81c-0.62,3.79-1.8,5.13-5.59,4.85c-4.27-0.32-8.57-0.07-13.96-0.07c2.67-13.7,5.22-26.81,7.64-39.27
		c-17.41-7.06-34.72-14.08-52.76-21.39c-0.17,0.2-1.17,1.25-2.02,2.41c-12.02,16.33-21.46,34.04-27.5,53.45
		c-1.22,3.92-3.07,5.24-7.04,4.89c-4.1-0.37-8.26-0.08-13.33-0.08c8.84-32.66,24.21-60.98,46.52-85.37
		c38.63-42.25,86.64-65.56,143.63-68.21C1344.69-662.01,1423.23-579.52,1441.06-503.19z M1167.77-556.42
		c22.01,4.62,43.1,7.29,64.71,7.49c0-29.75,0-59.06,0-89.54C1194.37-623.62,1181.32-590.26,1167.77-556.42z M1316.17-555.37
		c-3.59-8.94-6.32-16.59-9.68-23.95c-8.42-18.46-18.68-35.67-34.97-48.38c-6.04-4.71-12.6-8.45-20.32-9.82c0,29.68,0,59.05,0,89.73
		C1272.89-550.32,1294.03-552.79,1316.17-555.37z M1380.09-578.29c-24.2-25.34-51.31-42.37-83.27-51.63
		c17.09,20.44,28.02,43.99,36.84,69.88C1349.06-566.09,1363.94-571.94,1380.09-578.29z M1186.91-630.04
		c-32,9.45-59.24,26.39-83.34,51.75c16.08,6.31,31.07,12.19,46.49,18.24C1158.73-586.17,1169.92-609.58,1186.91-630.04z"/>
	<path d="M1090.42-334.18c17.9-7.23,35.27-14.24,53.03-21.41c-2.42-12.29-5-25.4-7.71-39.19c6.17,0,11.47-0.17,16.75,0.16
		c0.93,0.06,2.22,2.06,2.51,3.34c2.13,9.58,4.04,19.21,6.06,28.82c0.2,0.95,0.64,1.84,0.74,2.13c23.38-2.72,46.44-5.4,70.01-8.14
		c0-8.02,0-16.79,0-25.95c6.14,0,11.86,0,18.03,0c0,8.81,0,17.57,0,25.92c23.54,2.72,46.6,5.39,70.62,8.17
		c1.33-5.85,2.9-12.76,4.45-19.66c0.15-0.65,0.15-1.33,0.3-1.98c0.94-4.16,0.61-9.95,3.22-12.03c2.69-2.15,8.26-0.72,12.57-0.8
		c1.46-0.03,2.93,0.14,5.22,0.26c-2.65,13.43-5.21,26.43-7.68,38.94c17.52,7.07,35.02,14.12,53.14,21.43
		c8.63-10.9,16.24-23.54,22.26-37.1c2.9-6.53,5.39-13.25,7.7-20.01c0.92-2.69,2.12-3.71,4.94-3.59c4.64,0.21,9.3,0.06,14.99,0.06
		c-7.8,29.23-21.09,54.94-40.04,77.62c-36.5,43.68-83.1,69.45-139.81,74.96c-117.73,11.44-202.41-73.32-220.72-152.57
		c5.4,0,10.69-0.3,15.9,0.2c1.37,0.13,3.07,2.59,3.64,4.3c6.39,19.3,15.67,37.06,27.7,53.41
		C1089.09-335.71,1090.07-334.61,1090.42-334.18z M1231.67-260.52c0-29.83,0-59.03,0-88.2c-12.59-1.3-53.46,3.47-64.53,7.54
		c1.67,4.5,3.19,9.07,5.02,13.5c8.27,19.96,18.27,38.83,34.58,53.59C1213.83-267.68,1221.76-262.66,1231.67-260.52z M1314.65-341.53
		c-17.44-4.73-55.95-8.81-64.34-6.87c0,29.17,0,58.35,0,87.58C1276.96-265.19,1302.35-301.8,1314.65-341.53z M1102.61-319.98
		c17.38,21.6,68.64,52.8,83.6,51.29c-17.67-20.02-28.57-43.59-37.42-69.34C1133.24-331.95,1118.3-326.11,1102.61-319.98z
		 M1296.05-268.11c32.2-9.35,59.52-26.36,83.79-51.72c-16.17-6.3-31.22-12.16-46.72-18.2
		C1324.39-311.92,1313.19-288.5,1296.05-268.11z"/>
	<path d="M1313.42-484.47c0.94-0.4,1.1-0.53,1.25-0.52c5.98,0.05,13.4-1.99,17.53,0.81c3.79,2.56,4.13,10.33,5.81,15.86
		c3.16,10.43,6.19,20.91,9.64,32.63c2.34-6.42,4.29-11.67,6.17-16.94c3.46-9.71,6.93-19.41,10.26-29.17
		c0.81-2.38,1.93-3.44,4.59-3.32c6.47,0.28,14.45-2,19,1.02c4.21,2.79,4.84,11.08,6.87,17c3.55,10.35,6.97,20.74,10.86,32.36
		c5.19-17.56,10-33.85,14.82-50.16c6.52,0,12.65,0,19.16,0c-0.32,1.47-0.48,2.73-0.87,3.93c-6.89,21.35-13.86,42.68-20.66,64.07
		c-0.95,2.98-2.23,4.34-5.55,4.07c-4.14-0.33-8.34-0.33-12.48,0c-3.34,0.26-4.61-1.22-5.61-4.12c-5-14.45-10.16-28.85-15.29-43.25
		c-0.66-1.86-1.43-3.68-2.48-6.35c-5.63,15.82-10.98,30.83-16.32,45.84c-2.77,7.8-2.76,7.81-10.83,7.8c-4-0.01-7.99-0.04-11.99-0.08
		c-0.32,0-0.63-0.18-1.27-0.37C1328.55-436.93,1321-460.65,1313.42-484.47z"/>
	<path d="M1177.96-484.9c6.96,0,13.26,0,19.86,0c4.68,15.99,9.34,31.9,14.38,49.09c1.48-3.92,2.56-6.66,3.55-9.45
		c4.22-11.91,8.48-23.81,12.54-35.77c0.99-2.91,2.27-4.34,5.61-4.13c4.98,0.31,10,0.29,14.98,0.01c3.29-0.19,4.53,1.09,5.51,4.14
		c4.35,13.61,9.01,27.13,13.57,40.68c0.45,1.33,0.98,2.64,1.95,5.25c5.06-17.28,9.76-33.34,14.55-49.68c6.26,0,12.54,0,19.21,0
		c-0.31,1.37-0.52,2.76-0.95,4.08c-6.85,21.2-13.82,42.36-20.52,63.61c-1.05,3.32-2.49,4.43-5.9,4.23
		c-5.3-0.3-10.63-0.08-16.11-0.08c-6.25-17.56-12.42-34.88-19.02-53.4c-1.06,2.53-1.72,3.93-2.23,5.38
		c-5.23,14.73-10.52,29.44-15.59,44.22c-0.95,2.78-2.11,4.06-5.23,3.87c-4.65-0.29-9.34,0.12-13.98-0.19
		c-1.42-0.09-3.6-1.28-3.98-2.44C1192.69-438.38,1185.44-461.35,1177.96-484.9z"/>
	<path d="M1134.61-436.64c4.28-14.66,8.71-29.27,12.75-43.99c1-3.64,2.63-4.74,6.21-4.52c4.63,0.29,9.29,0.07,14.41,0.07
		c-0.38,1.62-0.59,2.86-0.97,4.04c-6.9,21.36-13.89,42.68-20.64,64.08c-0.98,3.11-2.27,4.26-5.52,4.1
		c-5.31-0.26-10.64-0.07-16.44-0.07c-6.23-17.53-12.44-35.01-19.03-53.55c-0.99,2.42-1.69,3.96-2.26,5.56
		c-5.22,14.73-10.49,29.44-15.56,44.22c-0.96,2.8-2.21,3.99-5.29,3.85c-5.64-0.26-11.29-0.07-17.21-0.07
		c-7.6-23.95-15.13-47.68-22.89-72.14c6.35,0,12.12-0.2,17.84,0.17c1.1,0.07,2.58,2.19,3.02,3.62c4.07,13.36,7.94,26.77,11.88,40.17
		c0.42,1.43,0.88,2.84,1.66,5.32c6.04-16.98,11.75-33.02,17.54-49.3c7,0,13.82-0.19,20.62,0.17c1.3,0.07,3.09,2.12,3.62,3.62
		c4.65,13.34,9.07,26.77,13.57,40.16c0.51,1.53,1.1,3.03,1.66,4.54C1133.92-436.59,1134.27-436.61,1134.61-436.64z"/>
</g>
<g>
	<path d="M404.06,153.81c-5.4,0-10.4,0.35-15.3-0.2c-1.56-0.17-3.59-2.48-4.17-4.23c-6.49-19.63-15.89-37.69-28.15-54.26
		c-0.68-0.91-1.46-1.75-1.67-2.01c-17.84,7.25-35.27,14.34-52.8,21.47c2.43,12.37,4.98,25.38,7.7,39.21
		c-6.06,0-11.31,0.2-16.53-0.17c-1.01-0.07-2.4-2.26-2.7-3.67c-2.24-10.39-4.26-20.83-6.23-30.71c-23.64,2.76-46.59,5.44-70.25,8.21
		c0,8,0,16.89,0,26.07c-6.18,0-11.74,0-17.93,0c0-8.88,0-17.77,0-26.04c-23.63-2.76-46.6-5.44-70.56-8.24
		c-1.9,9.35-4.22,19.53-5.9,29.81c-0.62,3.79-1.8,5.13-5.59,4.85c-4.27-0.32-8.57-0.07-13.96-0.07c2.67-13.7,5.22-26.81,7.64-39.27
		c-17.41-7.06-34.72-14.08-52.76-21.39c-0.17,0.2-1.17,1.25-2.02,2.41c-12.02,16.33-21.46,34.04-27.5,53.45
		c-1.22,3.92-3.07,5.24-7.04,4.89c-4.1-0.37-8.26-0.08-13.33-0.08c8.84-32.66,24.21-60.98,46.52-85.37
		C90.14,26.2,138.16,2.89,195.14,0.24C307.69-5.01,386.23,77.48,404.06,153.81z M130.77,100.58c22.01,4.62,43.1,7.29,64.71,7.49
		c0-29.75,0-59.06,0-89.54C157.37,33.38,144.32,66.74,130.77,100.58z M279.17,101.63c-3.59-8.94-6.32-16.59-9.68-23.95
		c-8.42-18.46-18.68-35.67-34.97-48.38c-6.04-4.71-12.6-8.45-20.32-9.82c0,29.68,0,59.05,0,89.73
		C235.89,106.68,257.03,104.21,279.17,101.63z M343.09,78.71c-24.2-25.34-51.31-42.37-83.27-51.63
		c17.09,20.44,28.02,43.99,36.84,69.88C312.06,90.91,326.94,85.06,343.09,78.71z M149.91,26.96c-32,9.45-59.24,26.39-83.34,51.75
		c16.08,6.31,31.07,12.19,46.49,18.24C121.73,70.83,132.92,47.42,149.91,26.96z"/>
	<path d="M53.42,322.82c17.9-7.23,35.27-14.24,53.03-21.41c-2.42-12.29-5-25.4-7.71-39.19c6.17,0,11.47-0.17,16.75,0.16
		c0.93,0.06,2.22,2.06,2.51,3.34c2.13,9.58,4.04,19.21,6.06,28.82c0.2,0.95,0.64,1.84,0.74,2.13c23.38-2.72,46.44-5.4,70.01-8.14
		c0-8.02,0-16.79,0-25.95c6.14,0,11.86,0,18.03,0c0,8.81,0,17.57,0,25.92c23.54,2.72,46.6,5.39,70.62,8.17
		c1.33-5.85,2.9-12.76,4.45-19.66c0.15-0.65,0.15-1.33,0.3-1.98c0.94-4.16,0.61-9.95,3.22-12.03c2.69-2.15,8.26-0.72,12.57-0.8
		c1.46-0.03,2.93,0.14,5.22,0.26c-2.65,13.43-5.21,26.43-7.68,38.94c17.52,7.07,35.02,14.12,53.14,21.43
		c8.63-10.9,16.24-23.54,22.26-37.1c2.9-6.53,5.39-13.25,7.7-20.01c0.92-2.69,2.12-3.71,4.94-3.59c4.64,0.21,9.3,0.06,14.99,0.06
		c-7.8,29.23-21.09,54.94-40.04,77.62c-36.5,43.68-83.1,69.45-139.81,74.96C106.98,426.2,22.3,341.44,3.99,262.19
		c5.4,0,10.69-0.3,15.9,0.2c1.37,0.13,3.07,2.59,3.64,4.3c6.39,19.3,15.67,37.06,27.7,53.41C52.09,321.29,53.07,322.39,53.42,322.82
		z M194.67,396.48c0-29.83,0-59.03,0-88.2c-12.59-1.3-53.46,3.47-64.53,7.54c1.67,4.5,3.19,9.07,5.02,13.5
		c8.27,19.96,18.27,38.83,34.58,53.59C176.83,389.32,184.76,394.34,194.67,396.48z M277.65,315.47
		c-17.44-4.73-55.95-8.81-64.34-6.87c0,29.17,0,58.35,0,87.58C239.96,391.81,265.35,355.2,277.65,315.47z M65.61,337.02
		c17.38,21.6,68.64,52.8,83.6,51.29c-17.67-20.02-28.57-43.59-37.42-69.34C96.24,325.05,81.3,330.89,65.61,337.02z M259.05,388.89
		c32.2-9.35,59.52-26.36,83.79-51.72c-16.17-6.3-31.22-12.16-46.72-18.2C287.39,345.08,276.19,368.5,259.05,388.89z"/>
	<path d="M276.42,172.53c0.94-0.4,1.1-0.53,1.25-0.52c5.98,0.05,13.4-1.99,17.53,0.81c3.79,2.56,4.13,10.33,5.81,15.86
		c3.16,10.43,6.19,20.91,9.64,32.63c2.34-6.42,4.29-11.67,6.17-16.94c3.46-9.71,6.93-19.41,10.26-29.17
		c0.81-2.38,1.93-3.44,4.59-3.32c6.47,0.28,14.45-2,19,1.02c4.21,2.79,4.84,11.08,6.87,17c3.55,10.35,6.97,20.74,10.86,32.36
		c5.19-17.56,10-33.85,14.82-50.16c6.52,0,12.65,0,19.16,0c-0.32,1.47-0.48,2.73-0.87,3.93c-6.89,21.35-13.86,42.68-20.66,64.07
		c-0.95,2.98-2.23,4.34-5.55,4.07c-4.14-0.33-8.34-0.33-12.48,0c-3.34,0.26-4.61-1.22-5.61-4.12c-5-14.45-10.16-28.85-15.29-43.25
		c-0.66-1.86-1.43-3.68-2.48-6.35c-5.63,15.82-10.98,30.83-16.32,45.84c-2.77,7.8-2.76,7.81-10.83,7.8c-4-0.01-7.99-0.04-11.99-0.08
		c-0.32,0-0.63-0.18-1.27-0.37C291.55,220.07,284,196.35,276.42,172.53z"/>
	<path d="M140.96,172.1c6.96,0,13.26,0,19.86,0c4.68,15.99,9.34,31.9,14.38,49.09c1.48-3.92,2.56-6.66,3.55-9.45
		c4.22-11.91,8.48-23.81,12.54-35.77c0.99-2.91,2.27-4.34,5.61-4.13c4.98,0.31,10,0.29,14.98,0.01c3.29-0.19,4.53,1.09,5.51,4.14
		c4.35,13.61,9.01,27.13,13.57,40.68c0.45,1.33,0.98,2.64,1.95,5.25c5.06-17.28,9.76-33.34,14.55-49.68c6.26,0,12.54,0,19.21,0
		c-0.31,1.37-0.52,2.76-0.95,4.08c-6.85,21.2-13.82,42.36-20.52,63.61c-1.05,3.32-2.49,4.43-5.9,4.23
		c-5.3-0.3-10.63-0.08-16.11-0.08c-6.25-17.56-12.42-34.88-19.02-53.4c-1.06,2.53-1.72,3.93-2.23,5.38
		c-5.23,14.73-10.52,29.44-15.59,44.22c-0.95,2.78-2.11,4.06-5.23,3.87c-4.65-0.29-9.34,0.12-13.98-0.19
		c-1.42-0.09-3.6-1.28-3.98-2.44C155.69,218.62,148.44,195.65,140.96,172.1z"/>
	<path d="M97.61,220.36c4.28-14.66,8.71-29.27,12.75-43.99c1-3.64,2.63-4.74,6.21-4.52c4.63,0.29,9.29,0.07,14.41,0.07
		c-0.38,1.62-0.59,2.86-0.97,4.04c-6.9,21.36-13.89,42.68-20.64,64.08c-0.98,3.11-2.27,4.26-5.52,4.1
		c-5.31-0.26-10.64-0.07-16.44-0.07c-6.23-17.53-12.44-35.01-19.03-53.55c-0.99,2.42-1.69,3.96-2.26,5.56
		c-5.22,14.73-10.49,29.44-15.56,44.22c-0.96,2.8-2.21,3.99-5.29,3.85c-5.64-0.26-11.29-0.07-17.21-0.07
		c-7.6-23.95-15.13-47.68-22.89-72.14c6.35,0,12.12-0.2,17.84,0.17c1.11,0.07,2.58,2.19,3.02,3.62
		c4.07,13.36,7.94,26.77,11.88,40.17c0.42,1.43,0.88,2.84,1.66,5.32c6.04-16.98,11.75-33.02,17.54-49.3c7,0,13.82-0.19,20.62,0.17
		c1.3,0.07,3.09,2.12,3.62,3.62c4.65,13.34,9.07,26.77,13.57,40.16c0.51,1.53,1.1,3.03,1.66,4.54
		C96.92,220.41,97.27,220.39,97.61,220.36z"/>
</g>
</svg>
